<?xml version="1.0" encoding="utf-8" standalone="no"?>
<!DOCTYPE svg PUBLIC "-//W3C//DTD SVG 1.1//EN"
  "http://www.w3.org/Graphics/SVG/1.1/DTD/svg11.dtd">
<svg xmlns:xlink="http://www.w3.org/1999/xlink" width="388.6225pt" height="278.459875pt" viewBox="0 0 388.6225 278.459875" xmlns="http://www.w3.org/2000/svg" version="1.1">
 <metadata>
  <rdf:RDF xmlns:dc="http://purl.org/dc/elements/1.1/" xmlns:cc="http://creativecommons.org/ns#" xmlns:rdf="http://www.w3.org/1999/02/22-rdf-syntax-ns#">
   <cc:Work>
    <dc:type rdf:resource="http://purl.org/dc/dcmitype/StillImage"/>
    <dc:date>2026-10-02T14:10:13.416039</dc:date>
    <dc:format>image/svg+xml</dc:format>
    <dc:creator>
     <cc:Agent>
      <dc:title>Matplotlib v3.10.0, https://matplotlib.org/</dc:title>
     </cc:Agent>
    </dc:creator>
   </cc:Work>
  </rdf:RDF>
 </metadata>
 <defs>
  <style type="text/css">*{stroke-linejoin: round; stroke-linecap: butt}</style>
 </defs>
 <g id="figure_1">
  <g id="patch_1">
   <path d="M 0 278.459875 
L 388.6225 278.459875 
L 388.6225 0 
L 0 0 
z
" style="fill: #ffffff"/>
  </g>
  <g id="axes_1">
   <g id="patch_2">
    <path d="M 24.3025 255.646125 
L 381.4225 255.646125 
L 381.4225 22.798125 
L 24.3025 22.798125 
z
" style="fill: #ffffff"/>
   </g>
   <g id="matplotlib.axis_1">
    <g id="text_1">
     <text style="font-size: 12px; font-family: 'DejaVu Sans', 'Bitstream Vera Sans', 'Computer Modern Sans Serif', 'Lucida Grande', 'Verdana', 'Geneva', 'Lucid', 'Arial', 'Helvetica', 'Avant Garde', sans-serif; text-anchor: end; fill: #1f2a37" x="381.4225" y="268.76425" transform="rotate(-0 381.4225 268.76425)">x</text>
    </g>
   </g>
   <g id="matplotlib.axis_2">
    <g id="text_2">
     <text style="font-size: 12px; font-family: 'DejaVu Sans', 'Bitstream Vera Sans', 'Computer Modern Sans Serif', 'Lucida Grande', 'Verdana', 'Geneva', 'Lucid', 'Arial', 'Helvetica', 'Avant Garde', sans-serif; text-anchor: end; fill: #1f2a37" x="14.3025" y="20.3025" transform="rotate(-0 14.3025 20.3025)">y</text>
    </g>
   </g>
   <g id="line2d_1">
    <path d="M 40.535227 245.062125 
L 47.060947 229.17889 
L 53.586666 213.947274 
L 60.112386 199.367279 
L 66.638105 185.438903 
L 73.163825 172.162148 
L 79.689544 159.537012 
L 84.583834 150.495786 
L 89.478124 141.821096 
L 94.372413 133.512942 
L 99.266703 125.571324 
L 104.160992 117.996243 
L 109.055282 110.787698 
L 113.949572 103.945689 
L 118.843861 97.470216 
L 123.738151 91.361279 
L 128.632441 85.618879 
L 133.52673 80.243014 
L 138.42102 75.233686 
L 143.31531 70.590894 
L 148.209599 66.314639 
L 153.103889 62.404919 
L 157.998178 58.861736 
L 162.892468 55.685089 
L 167.786758 52.874978 
L 172.681047 50.431404 
L 175.943907 49.005985 
L 179.206767 47.743471 
L 182.469627 46.643863 
L 185.732486 45.707159 
L 188.995346 44.933361 
L 192.258206 44.322467 
L 195.521066 43.874478 
L 198.783925 43.589395 
L 202.046785 43.467216 
L 205.309645 43.507942 
L 208.572505 43.711573 
L 211.835364 44.078109 
L 215.098224 44.607551 
L 218.361084 45.299897 
L 221.623944 46.155148 
L 224.886803 47.173304 
L 228.149663 48.354365 
L 231.412523 49.698331 
L 234.675383 51.205202 
L 239.569672 53.770956 
L 244.463962 56.703245 
L 249.358251 60.002071 
L 254.252541 63.667433 
L 259.146831 67.699331 
L 264.04112 72.097766 
L 268.93541 76.862736 
L 273.8297 81.994243 
L 278.723989 87.492286 
L 283.618279 93.356865 
L 288.512569 99.58798 
L 293.406858 106.185632 
L 298.301148 113.14982 
L 303.195437 120.480544 
L 308.089727 128.177804 
L 312.984017 136.2416 
L 317.878306 144.671933 
L 322.772596 153.468802 
L 327.666886 162.632207 
L 332.561175 172.162148 
L 339.086895 185.438903 
L 345.612614 199.367279 
L 352.138334 213.947274 
L 358.664053 229.17889 
L 365.189773 245.062125 
L 365.189773 245.062125 
" clip-path="url(#pf1307ff60f)" style="fill: none; stroke: #1f2a37; stroke-width: 2.2; stroke-linecap: square"/>
   </g>
   <g id="line2d_2">
    <path d="M 45.946136 213.702125 
L 143.3425 52.422125 
" clip-path="url(#pf1307ff60f)" style="fill: none; stroke: #057a55; stroke-width: 2; stroke-linecap: square"/>
   </g>
   <g id="line2d_3">
    <path d="M 235.327955 33.382125 
L 332.724318 154.342125 
" clip-path="url(#pf1307ff60f)" style="fill: none; stroke: #e02424; stroke-width: 2; stroke-linecap: square"/>
   </g>
   <g id="line2d_4">
    <path d="M 202.8625 255.646125 
L 202.8625 22.798125 
" clip-path="url(#pf1307ff60f)" style="fill: none; stroke-dasharray: 5.18,2.24; stroke-dashoffset: 0; stroke: #9ca3af; stroke-width: 1.4"/>
   </g>
   <g id="patch_3">
    <path d="M 24.3025 255.646125 
L 24.3025 22.798125 
" style="fill: none; stroke: #1f2a37; stroke-width: 1.6; stroke-linejoin: miter; stroke-linecap: square"/>
   </g>
   <g id="patch_4">
    <path d="M 24.3025 255.646125 
L 381.4225 255.646125 
" style="fill: none; stroke: #1f2a37; stroke-width: 1.6; stroke-linejoin: miter; stroke-linecap: square"/>
   </g>
   <g id="text_3">
    <text style="font-size: 9px; font-family: 'DejaVu Sans', 'Bitstream Vera Sans', 'Computer Modern Sans Serif', 'Lucida Grande', 'Verdana', 'Geneva', 'Lucid', 'Arial', 'Helvetica', 'Avant Garde', sans-serif; text-anchor: middle; fill: #057a55" x="94.644318" y="166.662125" transform="rotate(-0 94.644318 166.662125)">x = 2: lutning b₁ + 2b₂x = 1,6</text>
   </g>
   <g id="text_4">
    <text style="font-size: 9px; font-family: 'DejaVu Sans', 'Bitstream Vera Sans', 'Computer Modern Sans Serif', 'Lucida Grande', 'Verdana', 'Geneva', 'Lucid', 'Arial', 'Helvetica', 'Avant Garde', sans-serif; text-anchor: middle; fill: #e02424" x="284.026136" y="77.062125" transform="rotate(-0 284.026136 77.062125)">x = 9: lutning b₁ + 2b₂x = -1,2</text>
   </g>
   <g id="text_5">
    <text style="font-size: 10px; font-family: 'DejaVu Sans', 'Bitstream Vera Sans', 'Computer Modern Sans Serif', 'Lucida Grande', 'Verdana', 'Geneva', 'Lucid', 'Arial', 'Helvetica', 'Avant Garde', sans-serif; fill: #1f2a37" transform="translate(206.920682 228.264312)">vändpunkt</text>
    <text style="font-size: 10px; font-family: 'DejaVu Sans', 'Bitstream Vera Sans', 'Computer Modern Sans Serif', 'Lucida Grande', 'Verdana', 'Geneva', 'Lucid', 'Arial', 'Helvetica', 'Avant Garde', sans-serif; fill: #1f2a37" transform="translate(206.920682 239.462125)">x = −b₁ / (2b₂) = 6</text>
   </g>
   <g id="text_6">
    <text style="font-size: 12px; font-family: 'DejaVu Sans', 'Bitstream Vera Sans', 'Computer Modern Sans Serif', 'Lucida Grande', 'Verdana', 'Geneva', 'Lucid', 'Arial', 'Helvetica', 'Avant Garde', sans-serif; text-anchor: middle; fill: #1f2a37" x="202.8625" y="16.798125" transform="rotate(-0 202.8625 16.798125)">ŷ = b₀ + b₁x + b₂x²  (b₂ &lt; 0 ger en topp)</text>
   </g>
   <g id="PathCollection_1">
    <defs>
     <path id="m3ede8c7277" d="M 0 3 
C 0.795609 3 1.55874 2.683901 2.12132 2.12132 
C 2.683901 1.55874 3 0.795609 3 0 
C 3 -0.795609 2.683901 -1.55874 2.12132 -2.12132 
C 1.55874 -2.683901 0.795609 -3 0 -3 
C -0.795609 -3 -1.55874 -2.683901 -2.12132 -2.12132 
C -2.683901 -1.55874 -3 -0.795609 -3 0 
C -3 0.795609 -2.683901 1.55874 -2.12132 2.12132 
C -1.55874 2.683901 -0.795609 3 0 3 
z
" style="stroke: #057a55"/>
    </defs>
    <g clip-path="url(#pf1307ff60f)">
     <use xlink:href="#m3ede8c7277" x="94.644318" y="133.062125" style="fill: #057a55; stroke: #057a55"/>
    </g>
   </g>
   <g id="PathCollection_2">
    <defs>
     <path id="m9c30642d74" d="M 0 3 
C 0.795609 3 1.55874 2.683901 2.12132 2.12132 
C 2.683901 1.55874 3 0.795609 3 0 
C 3 -0.795609 2.683901 -1.55874 2.12132 -2.12132 
C 1.55874 -2.683901 0.795609 -3 0 -3 
C -0.795609 -3 -1.55874 -2.683901 -2.12132 -2.12132 
C -2.683901 -1.55874 -3 -0.795609 -3 0 
C -3 0.795609 -2.683901 1.55874 -2.12132 2.12132 
C -1.55874 2.683901 -0.795609 3 0 3 
z
" style="stroke: #e02424"/>
    </defs>
    <g clip-path="url(#pf1307ff60f)">
     <use xlink:href="#m9c30642d74" x="284.026136" y="93.862125" style="fill: #e02424; stroke: #e02424"/>
    </g>
   </g>
  </g>
 </g>
 <defs>
  <clipPath id="pf1307ff60f">
   <rect x="24.3025" y="22.798125" width="357.12" height="232.848"/>
  </clipPath>
 </defs>
</svg>
